<svg xmlns="http://www.w3.org/2000/svg" width="120" height="120" fill="none" viewBox="0 0 120 120"><defs><linearGradient id="dkGrad" x1="10" x2="110" y1="10" y2="110" gradientUnits="userSpaceOnUse"><stop offset="0%" stop-color="#F4D76A"/><stop offset="50%" stop-color="#D4AF37"/><stop offset="100%" stop-color="#E6C65C"/></linearGradient><radialGradient id="dkGlow" cx="50%" cy="50%" r="50%"><stop offset="0%" stop-color="#D4AF37" stop-opacity=".35"/><stop offset="100%" stop-color="#D4AF37" stop-opacity="0"/></radialGradient></defs><rect width="120" height="120" fill="#050505" rx="28"/><circle cx="60" cy="60" r="58" fill="url(#dkGlow)"/><g><line x1="60" x2="60" y1="6" y2="13" stroke="url(#dkGrad)" stroke-linecap="round" stroke-width="2" transform="rotate(0 60 60)"/><line x1="60" x2="60" y1="9" y2="12" stroke="url(#dkGrad)" stroke-width="1" opacity=".45" transform="rotate(15 60 60)"/><line x1="60" x2="60" y1="9" y2="12" stroke="url(#dkGrad)" stroke-width="1" opacity=".45" transform="rotate(30 60 60)"/><line x1="60" x2="60" y1="9" y2="12" stroke="url(#dkGrad)" stroke-width="1" opacity=".45" transform="rotate(45 60 60)"/><line x1="60" x2="60" y1="9" y2="12" stroke="url(#dkGrad)" stroke-width="1" opacity=".45" transform="rotate(60 60 60)"/><line x1="60" x2="60" y1="9" y2="12" stroke="url(#dkGrad)" stroke-width="1" opacity=".45" transform="rotate(75 60 60)"/><line x1="60" x2="60" y1="6" y2="13" stroke="url(#dkGrad)" stroke-linecap="round" stroke-width="2" transform="rotate(90 60 60)"/><line x1="60" x2="60" y1="9" y2="12" stroke="url(#dkGrad)" stroke-width="1" opacity=".45" transform="rotate(105 60 60)"/><line x1="60" x2="60" y1="9" y2="12" stroke="url(#dkGrad)" stroke-width="1" opacity=".45" transform="rotate(120 60 60)"/><line x1="60" x2="60" y1="9" y2="12" stroke="url(#dkGrad)" stroke-width="1" opacity=".45" transform="rotate(135 60 60)"/><line x1="60" x2="60" y1="9" y2="12" stroke="url(#dkGrad)" stroke-width="1" opacity=".45" transform="rotate(150 60 60)"/><line x1="60" x2="60" y1="9" y2="12" stroke="url(#dkGrad)" stroke-width="1" opacity=".45" transform="rotate(165 60 60)"/><line x1="60" x2="60" y1="6" y2="13" stroke="url(#dkGrad)" stroke-linecap="round" stroke-width="2" transform="rotate(180 60 60)"/><line x1="60" x2="60" y1="9" y2="12" stroke="url(#dkGrad)" stroke-width="1" opacity=".45" transform="rotate(195 60 60)"/><line x1="60" x2="60" y1="9" y2="12" stroke="url(#dkGrad)" stroke-width="1" opacity=".45" transform="rotate(210 60 60)"/><line x1="60" x2="60" y1="9" y2="12" stroke="url(#dkGrad)" stroke-width="1" opacity=".45" transform="rotate(225 60 60)"/><line x1="60" x2="60" y1="9" y2="12" stroke="url(#dkGrad)" stroke-width="1" opacity=".45" transform="rotate(240 60 60)"/><line x1="60" x2="60" y1="9" y2="12" stroke="url(#dkGrad)" stroke-width="1" opacity=".45" transform="rotate(255 60 60)"/><line x1="60" x2="60" y1="6" y2="13" stroke="url(#dkGrad)" stroke-linecap="round" stroke-width="2" transform="rotate(270 60 60)"/><line x1="60" x2="60" y1="9" y2="12" stroke="url(#dkGrad)" stroke-width="1" opacity=".45" transform="rotate(285 60 60)"/><line x1="60" x2="60" y1="9" y2="12" stroke="url(#dkGrad)" stroke-width="1" opacity=".45" transform="rotate(300 60 60)"/><line x1="60" x2="60" y1="9" y2="12" stroke="url(#dkGrad)" stroke-width="1" opacity=".45" transform="rotate(315 60 60)"/><line x1="60" x2="60" y1="9" y2="12" stroke="url(#dkGrad)" stroke-width="1" opacity=".45" transform="rotate(330 60 60)"/><line x1="60" x2="60" y1="9" y2="12" stroke="url(#dkGrad)" stroke-width="1" opacity=".45" transform="rotate(345 60 60)"/></g><circle cx="60" cy="60" r="44" stroke="url(#dkGrad)" stroke-width="1.5" opacity=".55"/><circle cx="60" cy="60" r="38" fill="#0a0a0a" stroke="url(#dkGrad)" stroke-width="1" opacity=".9"/><text x="60" y="69" fill="url(#dkGrad)" font-family="Arial, sans-serif" font-size="30" font-weight="700" letter-spacing="-1.5" text-anchor="middle">DK</text><line x1="44" x2="76" y1="76" y2="76" stroke="url(#dkGrad)" stroke-width="1.5" opacity=".8"/></svg>